<mxfile host="65bd71144e">
    <diagram id="H1rbPlwWNHuMX51PQHcM" name="Page-1">
        <mxGraphModel dx="1176" dy="908" grid="1" gridSize="10" guides="1" tooltips="1" connect="1" arrows="1" fold="1" page="1" pageScale="1" pageWidth="850" pageHeight="1100" math="0" shadow="0">
            <root>
                <mxCell id="0"/>
                <mxCell id="1" parent="0"/>
                <mxCell id="8" value="Identity" style="swimlane;whiteSpace=wrap;html=1;" parent="1" vertex="1">
                    <mxGeometry x="200" y="80" width="310" height="380" as="geometry"/>
                </mxCell>
                <mxCell id="18" style="edgeStyle=none;html=1;" parent="8" source="29" target="17" edge="1">
                    <mxGeometry relative="1" as="geometry">
                        <mxPoint x="90" y="260" as="sourcePoint"/>
                    </mxGeometry>
                </mxCell>
                <mxCell id="28" style="edgeStyle=orthogonalEdgeStyle;jumpStyle=arc;html=1;exitX=0;exitY=0.5;exitDx=0;exitDy=0;" parent="8" source="30" target="17" edge="1">
                    <mxGeometry relative="1" as="geometry">
                        <mxPoint x="165" y="110" as="sourcePoint"/>
                    </mxGeometry>
                </mxCell>
                <mxCell id="17" value="Cache" style="shape=cylinder3;whiteSpace=wrap;html=1;boundedLbl=1;backgroundOutline=1;size=15;" parent="8" vertex="1">
                    <mxGeometry x="50" y="70" width="60" height="80" as="geometry"/>
                </mxCell>
                <mxCell id="29" value="Api" style="shape=process;whiteSpace=wrap;html=1;backgroundOutline=1;" parent="8" vertex="1">
                    <mxGeometry x="20" y="260" width="120" height="60" as="geometry"/>
                </mxCell>
                <mxCell id="30" value="Worker(s)" style="shape=process;whiteSpace=wrap;html=1;backgroundOutline=1;" parent="8" vertex="1">
                    <mxGeometry x="160" y="80" width="120" height="60" as="geometry"/>
                </mxCell>
                <mxCell id="15" style="edgeStyle=orthogonalEdgeStyle;html=1;entryX=0;entryY=0.5;entryDx=0;entryDy=0;" parent="1" source="31" target="29" edge="1">
                    <mxGeometry relative="1" as="geometry">
                        <mxPoint x="150" y="370" as="sourcePoint"/>
                        <mxPoint x="230" y="370" as="targetPoint"/>
                    </mxGeometry>
                </mxCell>
                <mxCell id="21" value="" style="html=1;entryX=0.5;entryY=0;entryDx=0;entryDy=0;rounded=1;jumpStyle=gap;exitX=1;exitY=0.5;exitDx=0;exitDy=0;edgeStyle=orthogonalEdgeStyle;" parent="1" source="30" target="33" edge="1">
                    <mxGeometry relative="1" as="geometry">
                        <mxPoint x="630" y="220" as="targetPoint"/>
                        <mxPoint x="485" y="190" as="sourcePoint"/>
                    </mxGeometry>
                </mxCell>
                <mxCell id="25" style="edgeStyle=orthogonalEdgeStyle;html=1;entryX=0.5;entryY=1;entryDx=0;entryDy=0;exitX=1;exitY=0.5;exitDx=0;exitDy=0;jumpStyle=arc;" parent="1" source="29" target="33" edge="1">
                    <mxGeometry relative="1" as="geometry">
                        <mxPoint x="350" y="370" as="sourcePoint"/>
                        <mxPoint x="630" y="280" as="targetPoint"/>
                        <Array as="points">
                            <mxPoint x="610" y="370"/>
                        </Array>
                    </mxGeometry>
                </mxCell>
                <mxCell id="31" value="User" style="shape=umlActor;verticalLabelPosition=bottom;verticalAlign=top;html=1;outlineConnect=0;" parent="1" vertex="1">
                    <mxGeometry x="80" y="340" width="30" height="60" as="geometry"/>
                </mxCell>
                <mxCell id="33" value="External Service(s) or DB(s)" style="shape=process;whiteSpace=wrap;html=1;backgroundOutline=1;" parent="1" vertex="1">
                    <mxGeometry x="550" y="250" width="120" height="60" as="geometry"/>
                </mxCell>
            </root>
        </mxGraphModel>
    </diagram>
</mxfile>